# xmcd
#
# Track frame offsets: 
#        150
#        26290
#        45085
#        59092
#        74542
#        94135
#        114790
#        135052
#
# Disc length: 2074 seconds
#
# Revision: 1
# Processed by: cddbd v1.5.2PL0 Copyright (c) Steve Scherf et al.
# Submitted via: ExactAudioCopy v1.0b3
#
DISCID=5b081808
DTITLE=Bobby Rush - I Ain't Studdin' You
DYEAR=1991
DGENRE=Blues
TTITLE0=I Ain't Studdin' You
TTITLE1=You, You, You (Know What To Do)
TTITLE2=Hand Jive
TTITLE3=Blues Singer
TTITLE4=Thank You (For What You Done)
TTITLE5=You Make Me Feel So Good
TTITLE6=Money Honey
TTITLE7=Time To Hit The Road Again
EXTD=
EXTT0=
EXTT1=
EXTT2=
EXTT3=
EXTT4=
EXTT5=
EXTT6=
EXTT7=
PLAYORDER=
